<?xml version="1.0" encoding="UTF-8"?><svg id="a" xmlns="http://www.w3.org/2000/svg" viewBox="0 0 245.19 42.67"><defs><style>.b{fill:#e60012;}</style></defs><path class="b" d="M12.3,.26C11.41,.17,3.16,.14,1.85,.26,.47,.39,0,.97,0,2.41V40.87c0,1.74,1.2,1.7,2.43,1.76,.82,.04,8.72,.05,9.61,0,1.86-.12,1.95-1.08,1.96-2.69,.02-2.76,0-34.91,0-37.67,0-1.3-.32-1.86-1.69-2"/><path class="b" d="M71.55,37.97c2.72-3.63,3.11-11.15-3.84-14.95-3.96-2.16-24.68-8.88-28.95-10.59-1.19-.48-1.54-1.02-1.38-1.72,.2-.84,1.38-.82,1.89-.83,.45-.01,4.72,.04,30.49,.13,1.44,0,2.11-.36,2.27-1.84,.08-.75,.04-5.08,.03-5.55-.06-1.67-.33-2.36-2.22-2.36-2.12,0-27.42-.1-35.37,.19-8.91,.32-11.55,4.51-12.18,8.79-.61,4.18,.95,8.13,4.96,10.58,3.82,2.33,17,6.39,29.16,10.77,1.96,.71,2.13,1.4,1.82,2.04-.21,.43-1.09,.51-2.26,.52-3.03,.02-28.9-.39-30.44-.34-1.89,.05-2.24,.6-2.28,2.58-.01,.47,0,4.01,0,4.53,.02,1.84,.34,2.53,2.18,2.55,10.95,.11,29.85,.21,33.85,.08,6.35-.21,9.84-1.29,12.28-4.54"/><path class="b" d="M187.55,5.66c-1.61-3.76-4.91-5.27-11.59-5.5-5.18-.18-34.65-.02-35.35,0-2.08,.03-2.21,.85-2.24,2.67,0,.46-.01,4.61,.05,5.3,.14,1.52,1.14,1.68,2.21,1.68,.68,0,29.19-.19,31.14-.18,.92,0,1.29,.31,1.35,.89,.05,.5-.24,.82-.92,1.13-8.75,4.04-23.41,10.39-27.78,12.52-6.37,3.11-7.85,6.72-7.5,10.33,.38,4.02,2.84,7.59,11.85,7.88,7.91,.25,30.56-.08,36.11-.21,2-.05,2.1-.78,2.27-2.2,.07-.6,.03-3.77,.03-4.24-.03-2.53-.29-3.13-2.49-3.11-1.71,.01-23.91,.45-30.23,.39-1.01-.01-1.29-.55-.95-1.13,.21-.37,.87-.71,2.13-1.28,5.3-2.39,19.88-8.43,27.21-12.82,4.36-2.61,6.83-7.17,4.72-12.11"/><path class="b" d="M127.54,.19c-1.3-.1-9.27-.11-10.09-.01-1.02,.12-1.91,.29-1.91,2.17,0,1.22,0,19.1,0,22.57,0,4.45-.72,7.44-6.16,7.79-3.22,.21-5.52,.21-8.57-.07-5.16-.46-6.16-2.23-6.16-8.44,0-3.88,.05-19.94,.04-21.51,0-1.57-.16-2.41-2.06-2.48-1.35-.05-8.85-.05-9.68,0-1.01,.06-2.01,.27-2.01,2.21,0,1.15-.1,14.46,0,25.57,.13,14.35,9.92,14,14.51,14.39,2.79,.24,15.16,.29,20.68-.12,10.02-.74,12.79-5.92,13.01-13.21,.15-4.81,.28-22.15,.21-26.39-.03-1.58-.28-2.34-1.82-2.46"/><path class="b" d="M245.17,2.37c0-1.42-.34-2.2-1.85-2.3-1.44-.1-9.06-.07-9.74-.01-1.63,.13-2.04,.59-2.07,2.11-.02,1.22-.03,20.35-.1,23.75-.1,5.01-1.77,5.68-4.16,6.29-2.41,.61-10.2,.44-11.18,.31-3.02-.4-4.94-1.6-5.01-6.55-.07-4.78-.05-22.19-.05-23.75s-.63-2.02-1.94-2.1c-1.15-.07-8.25-.1-9.94,0-1.98,.12-2.07,.95-2.1,2.44-.05,2.93-.11,23.76,.21,27.24,.74,8.23,4.75,11.58,11.76,12.17,6.48,.54,21.94,.63,26.62-.46,7.57-1.77,9.11-7.69,9.46-15.15,.18-3.92,.1-22.19,.1-23.99"/></svg>